<svg width="258" height="223" viewBox="0 0 258 223" fill="none" xmlns="http://www.w3.org/2000/svg">
<path d="M0 0H258V223H0V0Z" fill="white"/>
<path d="M0 0H258V223H0V0Z" fill="#01CACC" fill-opacity="0.2"/>
<path fillRule="evenodd" clipRule="evenodd" d="M111.214 93.75C111.214 83.9469 119.161 76 128.964 76C138.767 76 146.714 83.9469 146.714 93.75C146.714 103.553 138.767 111.5 128.964 111.5C119.161 111.5 111.214 103.553 111.214 93.75ZM128.964 81.0714C121.963 81.0714 116.286 86.7489 116.286 93.75C116.286 100.751 121.963 106.429 128.964 106.429C135.965 106.429 141.643 100.751 141.643 93.75C141.643 86.7489 135.965 81.0714 128.964 81.0714ZM99.3425 121.521C100.965 118.248 104.328 116.571 107.675 116.571H150.255C153.602 116.571 156.964 118.248 158.587 121.521C159.916 124.199 161.541 128.18 161.896 132.298C162.157 135.346 160.889 138.485 158.085 140.23C153.645 142.986 144.496 147 128.965 147C113.434 147 104.285 142.986 99.8446 140.23C97.0401 138.485 95.7723 135.346 96.0335 132.298C96.3885 128.18 98.0138 124.199 99.3425 121.521ZM107.675 121.643C105.938 121.643 104.52 122.492 103.887 123.773C102.669 126.227 101.361 129.542 101.087 132.732C100.965 134.149 101.556 135.32 102.52 135.921C106.138 138.168 114.357 141.929 128.965 141.929C143.573 141.929 151.791 138.168 155.41 135.921C156.373 135.32 156.964 134.149 156.842 132.732C156.569 129.542 155.26 126.227 154.043 123.773C153.409 122.492 151.992 121.643 150.255 121.643H107.675Z" fill="#11C8D9"/>
</svg>
