<svg width="458" height="70" viewBox="0 0 458 70" fill="none" xmlns="http://www.w3.org/2000/svg">
<path d="M2.04445 0.970654C2.84767 0.342308 3.85344 0.00051994 4.85998 0.00051994C6.89471 0.00292126 8.92943 -0.00428276 10.9642 0.00452208C12.7832 0.0437437 14.511 1.27962 15.1882 3.02859C18.8982 12.4129 22.6074 21.7973 26.3135 31.1825C27.6053 27.9399 28.8801 24.6909 30.1665 21.4459C30.7765 19.9187 31.3284 18.3562 32.1518 16.933C32.9967 15.441 34.0914 14.0867 35.4319 13.0485C37.6298 11.3772 40.1631 10.1813 42.8233 9.56098C46.2325 8.76214 49.8435 8.89421 53.1855 9.9556C55.9756 10.8345 58.5731 12.3593 60.7338 14.3876C62.7461 16.2727 64.375 18.5996 65.465 21.1746C66.8164 24.3483 67.315 27.8999 66.9254 31.3434C66.426 35.8987 64.3062 40.2274 61.091 43.3732C60.965 43.4948 60.8436 43.6221 60.7199 43.747C62.1601 47.409 63.6004 51.071 65.0615 54.7242C66.3881 57.7275 67.7154 60.7299 69.0436 63.7316C69.1595 63.9861 69.274 64.2415 69.3644 64.508C68.0595 63.9629 66.7823 63.3482 65.4882 62.7783C63.3368 61.8057 61.1853 60.8364 59.0346 59.8639C57.5464 62.9808 56.1077 66.1233 54.6188 69.2394C54.0475 67.9139 53.5512 66.5547 53.0085 65.2172C49.7469 56.9607 46.4838 48.7049 43.2214 40.4492C42.7514 39.2541 42.7777 37.8718 43.2686 36.6887C43.8677 35.1839 45.1804 34.0224 46.694 33.6014C47.2878 33.4205 47.9255 33.4573 48.5077 33.226C49.2923 32.9234 50.0445 32.4256 50.4983 31.6795C50.9962 30.9023 51.2111 29.9378 51.0936 29.0125C50.9568 27.7782 50.2092 26.6448 49.1617 26.0436C48.166 25.4553 46.9105 25.3817 45.8514 25.8291C44.9307 26.2125 44.1646 26.9842 43.7749 27.9295C43.257 29.3479 42.6741 30.7406 42.1298 32.1494C39.9575 37.6372 37.7898 43.1274 35.6205 48.6161C35.3662 49.2508 35.1381 49.9008 34.7941 50.4907C33.5789 52.7199 31.4738 54.4049 29.0842 55.0596C28.1217 55.343 27.1152 55.4174 26.1187 55.3918C23.3882 55.4494 20.6639 54.1823 18.892 52.0307C18.1452 51.1447 17.5747 50.1113 17.1696 49.0147C11.6143 34.9445 6.05206 20.8768 0.492116 6.80827C0.183659 6.03824 0.0622869 5.18977 0.155829 4.36052C0.302713 3.02699 1.00466 1.77189 2.04445 0.970654ZM3.74907 4.6839C3.6478 5.14895 3.89905 5.57559 4.05521 5.99262C9.585 19.9835 15.1117 33.976 20.643 47.9669C21.3349 49.7359 22.8965 51.1006 24.6947 51.5185C25.4392 51.7122 26.2123 51.6729 26.9722 51.6625C29.0827 51.5593 31.0633 50.1457 31.9168 48.147C34.6627 41.2208 37.394 34.2874 40.1345 27.3588C40.4074 26.5471 40.7437 25.7499 41.2346 25.0519C41.9853 23.9577 43.0165 23.0708 44.197 22.5153C45.7687 21.7605 47.5993 21.6108 49.2676 22.0927C50.5726 22.4577 51.7693 23.2149 52.6954 24.2315C53.7901 25.4217 54.4936 26.9882 54.6706 28.6211C54.9652 31.132 53.9818 33.7967 52.0569 35.3784C50.8609 36.3701 49.3882 37.0113 47.8591 37.1538C47.1656 37.2282 46.5325 37.8293 46.4822 38.5633C46.4575 38.9668 46.6739 39.3246 46.8061 39.6904C48.6236 44.2905 50.4419 48.8898 52.2594 53.4899C53.1407 55.6968 53.9895 57.9172 54.8909 60.1152C55.2218 59.5245 55.4638 58.8865 55.7684 58.2814C56.1974 57.3649 56.6319 56.4508 57.0555 55.5311C57.1483 55.2621 57.4444 55.082 57.7096 55.2085C59.207 55.8633 60.6828 56.5716 62.1864 57.2096C61.7574 56.1866 61.3275 55.1637 60.9317 54.1255C59.5247 50.5675 58.1201 47.008 56.7123 43.45C56.5067 42.9385 56.6899 42.3134 57.1189 41.9892C58.8375 40.6509 60.3102 38.9676 61.3847 37.0369C62.8374 34.4539 63.5625 31.441 63.4481 28.4546C63.3453 25.5802 62.4756 22.7378 60.9456 20.3357C59.3608 17.8135 57.0888 15.7668 54.4712 14.4637C51.4253 12.9284 47.914 12.4242 44.5758 13.0005C42.0664 13.4207 39.6583 14.4653 37.605 16.0157C36.2993 17.0147 35.3701 18.4451 34.6766 19.9459C34.1687 21.0737 33.7482 22.2424 33.2843 23.3902C31.3308 28.3305 29.3795 33.2716 27.4275 38.2127C27.3425 38.4273 27.2273 38.6362 27.0487 38.7827C26.5972 39.1757 25.8512 39.1244 25.4616 38.6634C25.2343 38.3848 25.1431 38.023 25.0032 37.6949C20.6338 26.6376 16.2659 15.5795 11.8957 4.52141C11.7372 4.06035 11.2935 3.72337 10.8188 3.72417C8.85676 3.72017 6.8947 3.72337 4.93265 3.72257C4.37913 3.69375 3.85034 4.11879 3.74907 4.6839Z" fill="#01CACC"/>
<path d="M112.199 11.6656V24.2618H118.411C120.12 24.2618 121.578 23.6495 122.786 22.4248C124.011 21.1827 124.624 19.6957 124.624 17.9637C124.624 16.2317 124.011 14.7534 122.786 13.5288C121.578 12.2867 120.12 11.6656 118.411 11.6656H112.199ZM112.199 28.4605V45.2554H120.482C122.777 45.2554 124.727 44.4419 126.332 42.8149C127.955 41.1703 128.766 39.1847 128.766 36.8579C128.766 34.5312 127.955 32.5542 126.332 30.9273C124.727 29.2828 122.777 28.4605 120.482 28.4605H112.199ZM110.128 7.46689H118.411C121.276 7.46689 123.718 8.49033 125.737 10.5372C127.756 12.5841 128.766 15.0596 128.766 17.9637C128.766 20.8678 127.756 23.3433 125.737 25.3902C127.014 26.0025 128.196 26.8511 129.283 27.9357C131.699 30.4024 132.907 33.3765 132.907 36.8579C132.907 40.3394 131.691 43.3135 129.257 45.7802C126.842 48.2295 123.916 49.4541 120.482 49.4541H110.128C109.558 49.4541 109.067 49.253 108.652 48.8505C108.256 48.4307 108.057 47.932 108.057 47.3547V9.56625C108.057 8.98893 108.256 8.49907 108.652 8.0967C109.067 7.67682 109.558 7.46689 110.128 7.46689ZM166.041 34.7587C166.041 38.8173 164.626 42.2813 161.796 45.1504C158.966 48.0195 155.549 49.4541 151.545 49.4541C147.541 49.4541 144.124 48.0195 141.294 45.1504C138.464 42.2813 137.049 38.8173 137.049 34.7587C137.049 30.6999 138.464 27.2359 141.294 24.3668C144.124 21.4976 147.541 20.0631 151.545 20.0631C155.549 20.0631 158.966 21.4976 161.796 24.3668C164.626 27.2359 166.041 30.6999 166.041 34.7587ZM151.545 24.2618C148.68 24.2618 146.239 25.2852 144.219 27.3321C142.2 29.3789 141.191 31.8544 141.191 34.7587C141.191 37.6628 142.2 40.1382 144.219 42.1851C146.239 44.232 148.68 45.2554 151.545 45.2554C154.41 45.2554 156.852 44.232 158.871 42.1851C160.89 40.1382 161.899 37.6628 161.899 34.7587C161.899 31.8544 160.89 29.3789 158.871 27.3321C156.852 25.2852 154.41 24.2618 151.545 24.2618ZM174.739 42.5788C175.308 43.2961 175.783 43.7771 176.162 44.022C177.37 44.8443 178.829 45.2554 180.537 45.2554C182.245 45.2554 183.704 44.8005 184.912 43.8909C186.137 42.9811 186.749 41.9488 186.749 40.7943C186.749 39.4647 186.137 38.3013 184.912 37.304C183.704 36.3069 182.245 35.8082 180.537 35.8082C179.967 35.8082 179.476 35.6071 179.061 35.2048C178.665 34.7848 178.466 34.2863 178.466 33.709C178.466 33.1316 178.665 32.6418 179.061 32.2393C179.476 31.8195 179.967 31.6095 180.537 31.6095C182.245 31.6095 183.704 31.2859 184.912 30.6387C186.137 29.9912 186.749 29.1778 186.749 28.1981C186.749 27.0434 186.137 26.0987 184.912 25.3639C183.704 24.6292 182.245 24.2618 180.537 24.2618C178.829 24.2618 177.37 24.6729 176.162 25.4952C175.593 25.915 175.135 26.3786 174.79 26.886C174.704 27.0259 174.601 27.1572 174.48 27.2797C174.066 27.6995 173.574 27.9094 173.004 27.9094C172.435 27.9094 171.943 27.7083 171.529 27.3058C171.132 26.886 170.933 26.3874 170.933 25.8101C170.933 25.3902 171.037 25.0141 171.244 24.6817C171.727 23.9119 172.383 23.1859 173.211 22.5036C175.23 20.8766 177.672 20.0631 180.537 20.0631C183.402 20.0631 185.843 20.8416 187.863 22.3986C189.882 23.9381 190.891 25.8713 190.891 28.1981C190.891 30.5248 189.726 32.3619 187.397 33.709C189.726 35.7558 190.891 38.1177 190.891 40.7943C190.891 43.121 189.882 45.1504 187.863 46.8825C185.843 48.5969 183.402 49.4541 180.537 49.4541C177.672 49.4541 175.23 48.6318 173.211 46.9873C172.469 46.3925 171.865 45.7541 171.399 45.0717C171.123 44.7043 170.985 44.2844 170.985 43.812C170.985 43.2348 171.184 42.745 171.58 42.3425C171.995 41.9227 172.486 41.7127 173.056 41.7127C173.764 41.7127 174.325 42.0014 174.739 42.5788ZM207.458 32.6592C208.597 32.6592 209.572 32.2481 210.383 31.4258C211.194 30.6035 211.6 29.6152 211.6 28.4605C211.6 27.3058 211.194 26.3174 210.383 25.4952C209.572 24.6729 208.597 24.2618 207.458 24.2618H199.175V32.6592H207.458ZM209.529 45.2554C210.668 45.2554 211.643 44.8443 212.454 44.022C213.265 43.1997 213.671 42.2114 213.671 41.0567C213.671 39.9019 213.265 38.9136 212.454 38.0914C211.643 37.2691 210.668 36.8579 209.529 36.8579H199.175V45.2554H209.529ZM197.104 20.0631H207.458C209.753 20.0631 211.703 20.8853 213.308 22.5298C214.93 24.1568 215.742 26.1337 215.742 28.4605C215.742 30.5248 215.103 32.3181 213.826 33.84C214.378 34.19 214.905 34.6099 215.405 35.0998C217.01 36.7443 217.812 38.73 217.812 41.0567C217.812 43.3834 217.001 45.369 215.379 47.0136C213.774 48.6407 211.824 49.4541 209.529 49.4541H197.104C196.534 49.4541 196.043 49.253 195.628 48.8505C195.231 48.4307 195.033 47.932 195.033 47.3547V22.1624C195.033 21.5851 195.231 21.0952 195.628 20.6929C196.043 20.273 196.534 20.0631 197.104 20.0631ZM226.096 34.7587C226.096 37.6628 227.105 40.1382 229.124 42.1851C231.143 44.232 233.585 45.2554 236.45 45.2554C239.315 45.2554 241.757 44.232 243.776 42.1851C245.795 40.1382 246.804 37.6628 246.804 34.7587C246.804 31.8544 245.795 29.3789 243.776 27.3321C241.757 25.2852 239.315 24.2618 236.45 24.2618C233.585 24.2618 231.143 25.2852 229.124 27.3321C227.105 29.3789 226.096 31.8544 226.096 34.7587ZM226.096 59.951C226.096 60.5282 225.889 61.018 225.475 61.4205C225.077 61.8403 224.594 62.0503 224.025 62.0503C223.455 62.0503 222.964 61.8403 222.549 61.4205C222.152 61.018 221.954 60.5282 221.954 59.951V34.7587C221.954 30.6999 223.369 27.2359 226.199 24.3668C229.029 21.4976 232.446 20.0631 236.45 20.0631C240.454 20.0631 243.871 21.4976 246.701 24.3668C249.531 27.2359 250.946 30.6999 250.946 34.7587C250.946 38.8173 249.531 42.2813 246.701 45.1504C243.871 48.0195 240.454 49.4541 236.45 49.4541C232.446 49.4541 229.029 48.0195 226.199 45.1504C226.165 45.1155 226.13 45.0805 226.096 45.0454V59.951ZM269.584 24.2618C266.719 24.2618 264.277 25.2852 262.258 27.3321C260.239 29.3789 259.229 31.8544 259.229 34.7587C259.229 37.6628 260.239 40.1382 262.258 42.1851C264.277 44.232 266.719 45.2554 269.584 45.2554C272.448 45.2554 274.89 44.232 276.909 42.1851C278.928 40.1382 279.938 37.6628 279.938 34.7587C279.938 31.8544 278.928 29.3789 276.909 27.3321C274.89 25.2852 272.448 24.2618 269.584 24.2618ZM279.938 45.0454C277.039 47.9846 273.587 49.4541 269.584 49.4541C265.58 49.4541 262.163 48.0195 259.333 45.1504C256.503 42.2813 255.088 38.8173 255.088 34.7587C255.088 30.6999 256.503 27.2359 259.333 24.3668C262.163 21.4976 265.58 20.0631 269.584 20.0631C273.587 20.0631 277.004 21.4976 279.834 24.3668C282.665 27.2359 284.08 30.6999 284.08 34.7587V47.3547C284.08 47.932 283.872 48.4307 283.458 48.8505C283.061 49.253 282.578 49.4541 282.009 49.4541C281.439 49.4541 280.947 49.253 280.533 48.8505C280.136 48.4307 279.938 47.932 279.938 47.3547V45.0454ZM327.567 49.4541C326.997 49.4541 326.507 49.253 326.092 48.8505C325.695 48.4307 325.498 47.932 325.498 47.3547V46.8036C323.443 48.5706 321.027 49.4541 318.248 49.4541C315.109 49.4541 312.424 48.3257 310.197 46.0688C309.732 45.5965 309.309 45.098 308.931 44.573C308.55 45.098 308.128 45.5965 307.662 46.0688C305.436 48.3257 302.751 49.4541 299.612 49.4541C296.47 49.4541 293.787 48.3257 291.561 46.0688C289.334 43.812 288.221 41.0916 288.221 37.9077V22.1624C288.221 21.5851 288.42 21.0952 288.817 20.6929C289.231 20.273 289.723 20.0631 290.292 20.0631C290.862 20.0631 291.345 20.273 291.742 20.6929C292.156 21.0952 292.363 21.5851 292.363 22.1624V37.9077C292.363 39.9371 293.071 41.669 294.486 43.1035C295.901 44.5381 297.609 45.2554 299.612 45.2554C301.613 45.2554 303.321 44.5381 304.737 43.1035C306.151 41.669 306.859 39.9371 306.859 37.9077V22.1624C306.859 21.5851 307.058 21.0952 307.454 20.6929C307.869 20.273 308.361 20.0631 308.931 20.0631C309.499 20.0631 309.982 20.273 310.379 20.6929C310.794 21.0952 311 21.5851 311 22.1624V37.9077C311 39.9371 311.708 41.669 313.123 43.1035C314.539 44.5381 316.247 45.2554 318.248 45.2554C320.251 45.2554 321.959 44.5381 323.373 43.1035C324.79 41.669 325.498 39.9371 325.498 37.9077V22.1624C325.498 21.5851 325.695 21.0952 326.092 20.6929C326.507 20.273 326.997 20.0631 327.567 20.0631C328.137 20.0631 328.62 20.273 329.017 20.6929C329.432 21.0952 329.638 21.5851 329.638 22.1624V45.2554H331.71C332.28 45.2554 332.762 45.4654 333.158 45.8852C333.573 46.2877 333.779 46.7775 333.779 47.3547C333.779 50.6612 333.124 53.6878 331.812 56.4345C331.71 56.732 331.545 56.9943 331.322 57.2218C330.907 57.6416 330.415 57.8516 329.845 57.8516C329.277 57.8516 328.784 57.6416 328.37 57.2218C327.972 56.8193 327.775 56.3295 327.775 55.7521C327.775 55.3847 327.853 55.0525 328.008 54.755C328.802 53.1104 329.311 51.3436 329.534 49.4541H327.567ZM361.399 32.6592C361.021 30.6473 360.072 28.8716 358.552 27.3321C356.533 25.2852 354.091 24.2618 351.226 24.2618C348.362 24.2618 345.921 25.2852 343.901 27.3321C342.383 28.8716 341.434 30.6473 341.053 32.6592H361.399ZM359.199 42.3162C359.769 42.3162 360.252 42.5262 360.65 42.9461C361.064 43.3484 361.271 43.8383 361.271 44.4156C361.271 44.993 361.072 45.4915 360.676 45.9114C358.001 48.2733 354.85 49.4541 351.226 49.4541C347.224 49.4541 343.806 48.0195 340.976 45.1504C338.145 42.2813 336.731 38.8173 336.731 34.7587C336.731 30.6999 338.145 27.2359 340.976 24.3668C343.806 21.4976 347.224 20.0631 351.226 20.0631C355.231 20.0631 358.648 21.4976 361.477 24.3668C364.308 27.2359 365.724 30.6999 365.724 34.7587C365.724 35.3358 365.516 35.8345 365.101 36.2543C364.705 36.6568 364.222 36.8579 363.652 36.8579H341.053C341.434 38.8699 342.383 40.6455 343.901 42.1851C345.921 44.232 348.362 45.2554 351.226 45.2554C353.816 45.2554 356.041 44.4245 357.906 42.7625C358.285 42.4649 358.716 42.3162 359.199 42.3162ZM374.007 36.8579V47.3547C374.007 47.932 373.799 48.4307 373.384 48.8505C372.989 49.253 372.506 49.4541 371.936 49.4541C371.366 49.4541 370.874 49.253 370.461 48.8505C370.063 48.4307 369.865 47.932 369.865 47.3547V22.1624C369.865 21.5851 370.063 21.0952 370.461 20.6929C370.874 20.273 371.366 20.0631 371.936 20.0631C372.506 20.0631 372.989 20.273 373.384 20.6929C373.799 21.0952 374.007 21.5851 374.007 22.1624V32.6592H389.538V22.1624C389.538 21.5851 389.737 21.0952 390.133 20.6929C390.548 20.273 391.04 20.0631 391.608 20.0631C392.178 20.0631 392.66 20.273 393.058 20.6929C393.473 21.0952 393.679 21.5851 393.679 22.1624V47.3547C393.679 47.932 393.473 48.4307 393.058 48.8505C392.66 49.253 392.178 49.4541 391.608 49.4541C391.04 49.4541 390.548 49.253 390.133 48.8505C389.737 48.4307 389.538 47.932 389.538 47.3547V36.8579H374.007ZM424.741 47.3547C424.741 47.932 424.535 48.4307 424.12 48.8505C423.725 49.253 423.24 49.4541 422.672 49.4541C422.102 49.4541 421.61 49.253 421.195 48.8505C420.799 48.4307 420.601 47.932 420.601 47.3547V45.6491C418.012 48.1858 414.905 49.4541 411.282 49.4541C407.571 49.4541 404.395 48.1245 401.756 45.4654C399.132 42.7886 397.822 39.5697 397.822 35.8082V22.1624C397.822 21.5851 398.021 21.0952 398.416 20.6929C398.831 20.273 399.323 20.0631 399.891 20.0631C400.461 20.0631 400.944 20.273 401.341 20.6929C401.756 21.0952 401.963 21.5851 401.963 22.1624V35.8082C401.963 38.415 402.869 40.6455 404.681 42.5001C406.51 44.337 408.71 45.2554 411.282 45.2554C413.853 45.2554 416.045 44.337 417.857 42.5001C419.686 40.6455 420.601 38.415 420.601 35.8082V22.1624C420.601 21.5851 420.799 21.0952 421.195 20.6929C421.61 20.273 422.102 20.0631 422.672 20.0631C423.24 20.0631 423.725 20.273 424.12 20.6929C424.535 21.0952 424.741 21.5851 424.741 22.1624V47.3547ZM453.553 32.6592C453.174 30.6473 452.223 28.8716 450.705 27.3321C448.687 25.2852 446.244 24.2618 443.38 24.2618C440.515 24.2618 438.073 25.2852 436.054 27.3321C434.536 28.8716 433.587 30.6473 433.207 32.6592H453.553ZM451.352 42.3162C451.922 42.3162 452.405 42.5262 452.803 42.9461C453.217 43.3484 453.424 43.8383 453.424 44.4156C453.424 44.993 453.225 45.4915 452.827 45.9114C450.154 48.2733 447.003 49.4541 443.38 49.4541C439.377 49.4541 435.96 48.0195 433.129 45.1504C430.298 42.2813 428.884 38.8173 428.884 34.7587C428.884 30.6999 430.298 27.2359 433.129 24.3668C435.96 21.4976 439.377 20.0631 443.38 20.0631C447.384 20.0631 450.8 21.4976 453.63 24.3668C456.461 27.2359 457.875 30.6999 457.875 34.7587C457.875 35.3358 457.669 35.8345 457.254 36.2543C456.858 36.6568 456.374 36.8579 455.806 36.8579H433.207C433.587 38.8699 434.536 40.6455 436.054 42.1851C438.073 44.232 440.515 45.2554 443.38 45.2554C445.968 45.2554 448.194 44.4245 450.059 42.7625C450.438 42.4649 450.87 42.3162 451.352 42.3162Z" fill="#01CACC"/>
</svg>
