<svg width="23" height="23" viewBox="0 0 23 23" fill="none" xmlns="http://www.w3.org/2000/svg">
<path fillRule="evenodd" clipRule="evenodd" d="M14.6103 1.46974C16.5152 -0.435938 19.6049 -0.435938 21.5097 1.46974C23.4154 3.3746 23.4154 6.46354 21.5097 8.36922L8.5595 21.3195H22.16C22.6127 21.3195 22.98 21.686 22.98 22.1395C22.98 22.5921 22.6127 22.9595 22.16 22.9595H0.84002C0.38738 22.9595 0.0200195 22.5921 0.0200195 22.1395V16.3995C0.0200195 16.1822 0.106144 15.9731 0.260304 15.8197L14.6103 1.46974ZM6.24054 21.3195L17.3105 10.2495L12.73 5.66899L1.66002 16.739V21.3195H6.24054ZM13.8895 4.50951L18.47 9.09003L20.3503 7.20974C21.6147 5.94448 21.6147 3.89366 20.3503 2.62922C19.085 1.36396 17.035 1.36396 15.7697 2.62922L13.8895 4.50951Z" fill="#171717"/>
</svg>
