<svg width="26" height="28" viewBox="0 0 26 28" fill="none" xmlns="http://www.w3.org/2000/svg">
<path fillRule="evenodd" clipRule="evenodd" d="M6 7C6 3.134 9.134 0 13 0C16.866 0 20 3.134 20 7C20 10.866 16.866 14 13 14C9.134 14 6 10.866 6 7ZM13 2C10.239 2 8 4.239 8 7C8 9.761 10.239 12 13 12C15.761 12 18 9.761 18 7C18 4.239 15.761 2 13 2ZM1.31819 17.952C1.95819 16.661 3.2842 16 4.6042 16H21.3962C22.7162 16 24.0422 16.661 24.6822 17.952C25.2062 19.008 25.8472 20.578 25.9872 22.202C26.0902 23.404 25.5902 24.642 24.4842 25.33C22.7332 26.417 19.1252 28 13.0002 28C6.87519 28 3.26718 26.417 1.51618 25.33C0.410184 24.642 -0.0898064 23.404 0.0131936 22.202C0.153194 20.578 0.794186 19.008 1.31819 17.952ZM4.6042 18C3.9192 18 3.36018 18.335 3.11018 18.84C2.63018 19.808 2.11421 21.115 2.00621 22.373C1.95821 22.932 2.19121 23.394 2.57121 23.631C3.99821 24.517 7.23919 26 13.0002 26C18.7612 26 22.0022 24.517 23.4292 23.631C23.8092 23.394 24.0422 22.932 23.9942 22.373C23.8862 21.115 23.3702 19.808 22.8902 18.84C22.6402 18.335 22.0812 18 21.3962 18H4.6042Z" fill="#11C8D9"/>
</svg>
