<svg width="23" height="23" viewBox="0 0 23 23" fill="none" xmlns="http://www.w3.org/2000/svg">
<path fillRule="evenodd" clipRule="evenodd" d="M6.58002 2.47999C6.58002 1.12125 7.68128 0.019989 9.04002 0.019989H13.96C15.3188 0.019989 16.42 1.12125 16.42 2.47999V3.29999H22.16C22.6127 3.29999 22.98 3.66735 22.98 4.11999C22.98 4.57263 22.6127 4.93999 22.16 4.93999H20.52V18.88C20.52 21.144 18.684 22.98 16.42 22.98H6.58002C4.316 22.98 2.48002 21.144 2.48002 18.88V4.93999H0.84002C0.38738 4.93999 0.0200195 4.57263 0.0200195 4.11999C0.0200195 3.66735 0.38738 3.29999 0.84002 3.29999H6.58002V2.47999ZM8.22002 3.29999H14.78V2.47999C14.78 2.02735 14.4127 1.65999 13.96 1.65999H9.04002C8.58738 1.65999 8.22002 2.02735 8.22002 2.47999V3.29999ZM4.12002 4.93999V18.88C4.12002 20.2387 5.22128 21.34 6.58002 21.34H16.42C17.7788 21.34 18.88 20.2387 18.88 18.88V4.93999H4.12002ZM11.5 7.39999C11.9527 7.39999 12.32 7.76735 12.32 8.21999V18.06C12.32 18.5126 11.9527 18.88 11.5 18.88C11.0474 18.88 10.68 18.5126 10.68 18.06V8.21999C10.68 7.76735 11.0474 7.39999 11.5 7.39999Z" fill="#171717"/>
</svg>
